<?xml version="1.0" encoding="UTF-8"?>
<svg id="Layer_1" xmlns="http://www.w3.org/2000/svg" viewBox="0 0 570.11 136.9">
  <defs>
    <style>
      .cls-1 {
        fill: #262560;
      }
    </style>
  </defs>
  <path class="cls-1" d="M52.5,135v1.2l3.3.7v-1.2c-1-.2-2.2-.4-3.3-.7Z"/>
  <path class="cls-1" d="M20.2,117c-.8-.8-1.5-1.5-2.2-2.3v2l.6.6h1.6v-.3h0Z"/>
  <path class="cls-1" d="M14.7,110.7v2.1l.9,1.3.2.2,1.1,1.1v-2.1c-.79-.82-1.52-1.69-2.2-2.6Z"/>
  <path class="cls-1" d="M1.3,82.5v1.4c.2.1.4.1.5.2l-.3-1.5c-.07-.07-.13-.1-.2-.1Z"/>
  <polygon class="cls-1" points="13.6 109.7 12.7 110.2 13.6 111.3 13.6 109.7"/>
  <polygon class="cls-1" points="13.6 111.3 13.6 111.8 13.6 111.8 14.7 113.1 14.7 112.9 13.6 111.3"/>
  <path class="cls-1" d="M62.6,53.6v-2.2c-.76-.11-1.5-.31-2.2-.6v2.8h2.2Z"/>
  <path class="cls-1" d="M65.9,51.7c-.73.02-1.47-.02-2.2-.1v2c.74,0,1.47-.08,2.2-.2v-1.7Z"/>
  <path class="cls-1" d="M6.6,49.9l.2.3c.58.83,1.37,1.49,2.3,1.9v-1.2c-.7-.2-1.3-.5-1.9-.7,0,0-.6-.3-.6-.3Z"/>
  <path class="cls-1" d="M10.2,52.6c.7.2,1.4.4,2.2.6v-1.6c-.74-.08-1.48-.21-2.2-.4v1.4Z"/>
  <path class="cls-1" d="M73.7,83c-.74-.02-1.47-.08-2.2-.2v2.2c.8,0,1.5-.1,2.2-.1v-1.9Z"/>
  <path class="cls-1" d="M72.6,50.4l.2-.5-.5.3c-.62.28-1.25.51-1.9.7v1.2c.87-.37,1.63-.95,2.2-1.7Z"/>
  <path class="cls-1" d="M77.1,82.8c-.73.12-1.46.18-2.2.2v1.7c.74-.07,1.48-.2,2.2-.4v-1.5h0Z"/>
  <path class="cls-1" d="M69.3,51.2c-.72.18-1.46.32-2.2.4v1.6c.76-.08,1.5-.28,2.2-.6v-1.4Z"/>
  <path class="cls-1" d="M13.6,51.7v1.7c.73.12,1.46.19,2.2.2v-2c-.73.08-1.47.11-2.2.1Z"/>
  <path class="cls-1" d="M90.4,114l.2-.5-.5.3c-.64.29-1.31.53-2,.7v1.2c.91-.34,1.71-.93,2.3-1.7Z"/>
  <path class="cls-1" d="M4.6,83v1.7c.73.12,1.46.19,2.2.2v-1.9h-2.2Z"/>
  <path class="cls-1" d="M8,82.8v2.1h2.2v-2.6c-.72.21-1.46.38-2.2.5Z"/>
  <path class="cls-1" d="M1.8,84c.5.2,1.1.3,1.7.5v-1.6c-.68-.08-1.35-.21-2-.4l.3,1.5Z"/>
  <polygon class="cls-1" points="64.8 85 67 85 67 81.3 64.8 80.2 64.8 85"/>
  <rect class="cls-1" x="59.2" y="126.2" width="16.7" height="10"/>
  <path class="cls-1" d="M87.1,114.9c-.72.18-1.46.32-2.2.4v1.6c.76-.08,1.5-.28,2.2-.6v-1.4Z"/>
  <path class="cls-1" d="M12.4,89.4h-3.1c-2.08.02-4.16-.18-6.2-.6,1.88,6.05,4.61,11.81,8.1,17.1l1.2-.6v-15.9Z"/>
  <path class="cls-1" d="M16.9,109.5h-2.2v1.3c.7.9,1.5,1.8,2.2,2.7v-4Z"/>
  <path class="cls-1" d="M81.5,81.7l.3-.5-.6.3c-.96.45-1.96.79-3,1v1.4c1.31-.35,2.47-1.13,3.3-2.2h0Z"/>
  <path class="cls-1" d="M10.5,77.4l8.6-4.2v-15.1h-1.3c-7.8,0-13.5-2.1-15.6-6.9C.75,56.85,0,62.66,0,68.5c0,3.04.2,6.08.6,9.1,3.18,1.33,6.78,1.26,9.9-.2Z"/>
  <polygon class="cls-1" points="64.8 117.3 63.7 117.3 63.7 109.5 61.5 109.5 61.5 117.3 60.3 117.3 60.3 109.5 58.1 109.5 58.1 117.3 57 117.3 57 109.5 54.8 109.5 54.8 117.3 67 117.3 67 109.5 64.8 109.5 64.8 117.3"/>
  <polygon class="cls-1" points="71.5 117.3 73.7 117.3 73.7 112.4 71.5 111.2 71.5 117.3"/>
  <path class="cls-1" d="M55.9,126.2h-3.3v8.8c1.1.3,2.2.5,3.3.7v-9.5Z"/>
  <polygon class="cls-1" points="68.1 109.6 68.1 117.3 70.4 117.3 70.4 110.7 68.1 109.6"/>
  <path class="cls-1" d="M75.9,122.8v-2.2H24.2c.89.79,1.82,1.52,2.8,2.2h48.9Z"/>
  <path class="cls-1" d="M20.2,117v-7.5h1.1v7.8h2.2v-7.8h-5.6v5.2l2.3,2.3Z"/>
  <path class="cls-1" d="M77.1,114c-.23-.12-.46-.22-.7-.3l-1.6-.8v4.4h2.2l.1-3.3h0Z"/>
  <path class="cls-1" d="M16.9,79.2l-2.2,1.1v4.6h-1.1v-4.1l-1,.5c-.38.21-.78.38-1.2.5v3h5.6l-.1-5.6Z"/>
  <path class="cls-1" d="M22.5,49l-1.2.9-.1.1-.2.1c-.2.1-.5.2-.7.3v3.2h2.2s0-4.6,0-4.6Z"/>
  <path class="cls-1" d="M42.5,32.1c-.6-.9-1.1-1.9-1.7-3l-.5-1v25.7h2.2v-21.7Z"/>
  <path class="cls-1" d="M19.1,50.8c-.7.29-1.44.49-2.2.6v2.2h2.3s-.1-2.8-.1-2.8Z"/>
  <rect class="cls-1" x="23.6" y="62.7" width="3.3" height="11.1"/>
  <path class="cls-1" d="M29.2,42.9c-.7.8-1.5,1.6-2.2,2.3v8.5h2.2v-10.8Z"/>
  <path class="cls-1" d="M35.8,53.8v-19.9c-.8,1.2-1.5,2.3-2.2,3.4v16.5h2.2Z"/>
  <path class="cls-1" d="M39.2,53.8v-25.7l-.5,1c-.6,1-1.1,2-1.7,3v21.7h2.2Z"/>
  <path class="cls-1" d="M32.5,38.8c-.7,1-1.5,1.9-2.2,2.8v12.1h2.2v-14.9h0Z"/>
  <polygon class="cls-1" points="26.9 77.2 24.7 77.2 24.7 85 23.6 85 23.6 77.2 21.4 77.2 21.4 85 20.2 85 20.2 77.6 18 78.7 18 85 26.9 85 26.9 77.2"/>
  <rect class="cls-1" x="34.7" y="93.9" width="12.3" height="12.3"/>
  <polygon class="cls-1" points="51.4 117.3 50.3 117.3 50.3 109.5 48.1 109.5 48.1 117.3 53.7 117.3 53.7 109.5 51.4 109.5 51.4 117.3"/>
  <rect class="cls-1" x="50.3" y="93.9" width="3.3" height="12.3"/>
  <rect class="cls-1" x="16.9" y="93.9" width="7.8" height="12.3"/>
  <polygon class="cls-1" points="38.1 117.3 40.3 117.3 40.3 109.5 41.4 109.5 41.4 117.3 43.6 117.3 43.6 109.5 44.7 109.5 44.7 117.3 47 117.3 47 109.5 38.1 109.5 38.1 117.3"/>
  <rect class="cls-1" x="24.7" y="109.5" width="2.2" height="7.8"/>
  <rect class="cls-1" x="28" y="109.5" width="2.2" height="7.8"/>
  <polygon class="cls-1" points="31.4 117.3 33.6 117.3 33.6 109.5 34.7 109.5 34.7 117.3 36.9 117.3 36.9 109.5 31.4 109.5 31.4 117.3"/>
  <polygon class="cls-1" points="58.1 77.2 58.1 85 60.3 85 60.3 78 58.7 77.2 58.1 77.2"/>
  <polygon class="cls-1" points="47 85 47 77.2 38.1 77.2 38.1 85 40.3 85 40.3 77.2 41.4 77.2 41.4 85 43.6 85 43.6 77.2 44.7 77.2 44.7 85 47 85"/>
  <polygon class="cls-1" points="28 77.2 28 85 33.6 85 33.6 77.2 34.7 77.2 34.7 85 37 85 37 77.2 31.4 77.2 31.4 85 30.3 85 30.3 77.2 28 77.2"/>
  <polygon class="cls-1" points="63.7 79.6 61.5 78.5 61.5 85 63.7 85 63.7 79.6"/>
  <rect class="cls-1" x="30.3" y="62.7" width="18.9" height="11.1"/>
  <path class="cls-1" d="M45.9,37.3c-.7-1.1-1.5-2.2-2.2-3.4v19.9h2.2v-16.5Z"/>
  <path class="cls-1" d="M70.4,85v-2.4c-.76-.18-1.5-.45-2.2-.8v3.2h2.2Z"/>
  <rect class="cls-1" x="28" y="93.9" width="3.3" height="12.3"/>
  <path class="cls-1" d="M78.2,117.3h2.2v-2.2c-.76-.11-1.5-.31-2.2-.6v2.8h0Z"/>
  <rect class="cls-1" x="57" y="93.9" width="7.8" height="12.3"/>
  <rect class="cls-1" x="16.9" y="88.3" width="47.9" height="2.2"/>
  <path class="cls-1" d="M49.2,41.7c-.7-.9-1.5-1.8-2.2-2.8v14.9h2.2v-12.1h0Z"/>
  <path class="cls-1" d="M59.2,53.6v-3.2c-.2-.1-.5-.2-.7-.3l-.2-.1-.1-.1-1.2-.9v4.6h2.2Z"/>
  <polygon class="cls-1" points="54.8 85 53.7 85 53.7 77.2 48.1 77.2 48.1 85 50.3 85 50.3 77.2 51.4 77.2 51.4 85 57 85 57 77.2 54.8 77.2 54.8 85"/>
  <path class="cls-1" d="M55.9,53.8v-.2h0v-5.5c-.78-.58-1.51-1.21-2.2-1.9v7.5h2.2v.1h0Z"/>
  <rect class="cls-1" x="52.5" y="62.7" width="3.3" height="11.1"/>
  <path class="cls-1" d="M52.5,53.8v-8.5c-.78-.72-1.52-1.49-2.2-2.3v10.8h2.2Z"/>
  <path class="cls-1" d="M83.7,115.3c-.73.02-1.47-.02-2.2-.1v2c.74-.01,1.47-.08,2.2-.2v-1.7h0Z"/>
  <polyline class="cls-1" points="50.5 136.2 50.5 135.4 50.5 126.2 35.6 126.2 35.6 130.1"/>
  <polyline class="cls-1" points="33.4 128.7 33.4 126.2 29.4 126.2"/>
  <path class="cls-1" d="M68.4,0C40.45-.04,15.3,16.96,4.9,42.9l.4.6c1.6,2.2,6.5,4.7,11.4,3.4l2-.7,4.5-3.6c4.5-4.2,8.6-9.9,14-20.4-1.63-.86-2.64-2.56-2.6-4.4-.02-2.76,2.2-5.02,4.96-5.04,2.76-.02,5.02,2.2,5.04,4.96,0,1.88-1.03,3.61-2.7,4.48,5.4,10.6,9.5,16.3,14,20.4l4.5,3.6,2,.7c5,1.3,9.8-1.1,11.4-3.4l3.3-4.5.7,5.6c1.4,9.5-5.6,13.5-16.2,13.5h-1.3v14.9l8.9,4.4c5.7,2.8,11.8,0,13.7-2.6l3.3-4.5.7,5.5c1.2,9.6-5.9,13.5-16.5,13.5h-1.2v15.7l9.1,4.6c5.6,2.8,11.6,0,13.5-2.6l3.3-4.5.7,5.6c1,8.4-4.2,12.5-12.6,13.3l-2.9.1v14.2c37.19-6.5,62.07-41.91,55.58-79.1C130.16,23.83,101.67-.06,68.4,0h0ZM87.25,22.45l2.81,6.12-5.8-3.34-4.82,4.5,1.25-6.55-5.8-3.35,6.56-.73,1.26-6.56,2.81,6.11,6.56-.71-4.83,4.51h0ZM118.36,59.92l6-2.87-3.16,5.94,4.63,4.92-6.58-1.26-3.05,5.93-1-6.72-6.58-1.27,6-2.88-.94-6.72,4.68,4.93h0ZM99.36,32.51l5.91,3.27,4.8-4.63-1.17,6.65,5.9,3.28-6.61.83-1.14,6.66-3-6.14-6.61.86,4.8-4.64-2.88-6.14h0ZM117.95,96.4l-5.75-3.3-4.84,4.51,1.25-6.58-5.79-3.33,6.57-.72,1.26-6.55,2.79,6.12,6.57-.72-4.84,4.5,2.78,6.07h0Z"/>
  <g>
    <path class="cls-1" d="M187.9,64c-7.05.11-13.85-2.6-18.9-7.52-5.17-4.77-8.05-11.52-7.91-18.55-.19-6.85,2.29-13.51,6.92-18.56,4.52-4.97,10.99-7.71,17.71-7.51,5.83.03,11.61.98,17.14,2.82l-.92,2.82c-5.25-1.63-10.72-2.49-16.22-2.54-5.78-.17-11.32,2.26-15.1,6.64-3.93,4.47-6.02,10.27-5.86,16.22-.1,6.16,2.37,12.08,6.81,16.34,4.29,4.39,10.19,6.82,16.33,6.73,4.92.12,9.82-.75,14.4-2.54l1.05,2.4c-2.18,1.18-4.55,1.99-7,2.4-2.78.55-5.61.84-8.45.85h0Z"/>
    <path class="cls-1" d="M254.64,63.15v-25.26h-34.64v25.26h-3.38V12.71h3.38v22.15h34.64V12.71h3.39v50.44h-3.39Z"/>
    <path class="cls-1" d="M276.66,63.15V12.71h3.38v50.44h-3.38Z"/>
    <path class="cls-1" d="M301.91,20.75l.15,6v36.4h-3.39V12.28h1.53l33.23,38.31c2.26,2.67,4,4.81,5.22,6.42-.19-2.26-.28-4.84-.28-7.76V12.71h3.39v50.86h-1.56l-33.86-39c-2.35-2.67-3.86-4.45-4.52-5.36l.09,1.54h0Z"/>
    <path class="cls-1" d="M363.08,45.65l-7.26,17.5h-3.62l21.23-50.8h2l21.31,50.8h-3.81l-7.27-17.5h-22.58ZM374.2,18c-.13.27-.22.55-.28.84-.66,2-1.3,3.74-1.91,5.15l-7.76,18.77h20.18l-7.73-18.66c-1.67-3.59-2.5-5.63-2.5-6.1h0Z"/>
  </g>
  <g>
    <path class="cls-1" d="M164.06,129.25v-50.44h3.38v47.34h23.21v3.1h-26.59Z"/>
    <path class="cls-1" d="M204.2,111.75l-7.27,17.5h-3.59l21.23-50.8h2l21.3,50.8h-3.81l-7.26-17.5h-22.6ZM215.35,84.1c-.13.27-.22.55-.28.84-.66,2-1.3,3.74-1.91,5.15l-7.76,18.77h20.18l-7.76-18.7c-1.65-3.57-2.47-5.59-2.47-6.06h0Z"/>
    <path class="cls-1" d="M270.1,83.25c-3.23-1.4-6.71-2.13-10.23-2.15-6.87,0-10.31,2.54-10.31,7.62.02,2.27.85,4.46,2.33,6.18,1.62,1.96,3.53,3.67,5.65,5.08,2.21,1.48,4.42,3,6.63,4.55,2.18,1.52,4.09,3.41,5.64,5.57,1.52,2.04,2.33,4.52,2.33,7.06,0,4.28-1.43,7.51-4.3,9.7s-6.83,3.27-11.89,3.24c-4.62.13-9.16-1.23-12.95-3.88l1.7-2.54c3.3,2.18,7.18,3.33,11.14,3.31,4.05,0,7.15-.81,9.32-2.43,2.17-1.65,3.39-4.27,3.24-7-.04-2.21-.87-4.34-2.33-6-1.63-1.98-3.52-3.71-5.64-5.15-2.21-1.53-4.42-3.1-6.63-4.7-2.18-1.59-4.07-3.54-5.6-5.76-1.5-2.07-2.32-4.57-2.32-7.13-.12-3.09,1.26-6.04,3.7-7.93,2.47-1.95,5.81-2.92,10-2.93,4.05-.03,8.06.84,11.74,2.54l-1.22,2.75h0Z"/>
    <path class="cls-1" d="M296.2,81.77h-17.07v-3h37.53v3h-17.07v47.48h-3.39v-47.48h0Z"/>
  </g>
  <g>
    <path class="cls-1" d="M341.81,87.25l.14,6v36.4h-3.39v-50.87h1.55l33.23,38.32c2.26,2.67,4,4.81,5.22,6.43-.18-2.26-.28-4.85-.28-7.77v-36.55h3.39v50.89h-1.55l-33.87-39c-2.35-2.68-3.86-4.47-4.51-5.36l.07,1.51h0Z"/>
    <path class="cls-1" d="M400.29,129.65v-50.44h3.39v50.44h-3.39Z"/>
    <path class="cls-1" d="M428.87,88.1c-3.93,4.49-6.03,10.29-5.86,16.26-.12,6.12,2.28,12.02,6.63,16.33,4.22,4.38,10.08,6.81,16.16,6.7,4.65.13,9.27-.65,13.62-2.29v-20.71h3.38v22.3c-4.09,2.54-9.82,3.81-17.18,3.81-7,.15-13.75-2.6-18.66-7.58-5-4.87-7.76-11.59-7.62-18.56-.18-6.83,2.3-13.45,6.92-18.48,4.52-4.97,10.98-7.72,17.7-7.52,5.83.03,11.62.98,17.15,2.82l-.91,2.83c-5.26-1.64-10.72-2.49-16.23-2.54-5.77-.17-11.32,2.26-15.1,6.63h0Z"/>
    <path class="cls-1" d="M518.33,129.65v-25.26h-34.64v25.26h-3.39v-50.44h3.39v22.15h34.64v-22.15h3.38v50.44h-3.38Z"/>
    <path class="cls-1" d="M549.65,82.17h-17.07v-3h37.53v3h-17.07v47.48h-3.39v-47.48h0Z"/>
  </g>
  <polygon class="cls-1" points="29.7 57.1 25.8 57.1 23.6 57.1 23.6 59.3 55.9 59.3 55.9 57.1 29.7 57.1"/>
  <path class="cls-1" d="M25.8,46.3c-.7.7-1.5,1.3-2.2,1.9v5.6h2.3s-.1-7.5-.1-7.5Z"/>
  <polygon class="cls-1" points="408.72 58.02 406.81 56.53 421.68 37.41 406.82 18.99 408.71 17.48 424.77 37.38 408.72 58.02"/>
  <polygon class="cls-1" points="420.31 58.02 418.4 56.53 433.28 37.41 418.42 18.99 420.3 17.48 436.36 37.38 420.31 58.02"/>
  <polygon class="cls-1" points="431.91 58.02 430 56.53 444.87 37.41 430.01 18.99 431.9 17.48 447.96 37.38 431.91 58.02"/>
</svg>