<?xml version="1.0" encoding="UTF-8"?>
<svg id="Layer_1" xmlns="http://www.w3.org/2000/svg" viewBox="0 0 570.11 333.68">
  <defs>
    <style>
      .cls-1 {
        fill: #64d7ff;
      }
    </style>
  </defs>
  <path class="cls-1" d="M52.5,331.78v1.2l3.3.7v-1.2c-1-.2-2.2-.4-3.3-.7Z"/>
  <path class="cls-1" d="M20.2,313.78c-.8-.8-1.5-1.5-2.2-2.3v2l.6.6h1.6v-.3Z"/>
  <path class="cls-1" d="M14.7,307.48v2.1l.9,1.3.2.2,1.1,1.1v-2.1c-.79-.82-1.52-1.69-2.2-2.6Z"/>
  <path class="cls-1" d="M1.3,279.28v1.4c.2.1.4.1.5.2l-.3-1.5q-.1-.1-.2-.1Z"/>
  <polygon class="cls-1" points="13.6 306.48 12.7 306.98 13.6 308.08 13.6 306.48"/>
  <polygon class="cls-1" points="13.6 308.08 13.6 308.58 13.6 308.58 14.7 309.88 14.7 309.68 13.6 308.08"/>
  <path class="cls-1" d="M62.6,250.38v-2.2c-.76-.11-1.5-.31-2.2-.6v2.8h2.2Z"/>
  <path class="cls-1" d="M65.9,248.48c-.73.02-1.47-.02-2.2-.1v2c.74-.01,1.47-.08,2.2-.2v-1.7Z"/>
  <path class="cls-1" d="M6.6,246.68l.2.3c.58.83,1.37,1.49,2.3,1.9v-1.2c-.7-.2-1.3-.5-1.9-.7l-.6-.3Z"/>
  <path class="cls-1" d="M10.2,249.38c.7.2,1.4.4,2.2.6v-1.6c-.74-.08-1.48-.21-2.2-.4v1.4Z"/>
  <path class="cls-1" d="M73.7,279.78c-.74-.02-1.47-.08-2.2-.2v2.2c.8,0,1.5-.1,2.2-.1v-1.9Z"/>
  <path class="cls-1" d="M72.6,247.18l.2-.5-.5.3c-.62.28-1.25.51-1.9.7v1.2c.87-.37,1.63-.95,2.2-1.7Z"/>
  <path class="cls-1" d="M77.1,279.58c-.73.12-1.46.18-2.2.2v1.7c.74-.07,1.48-.2,2.2-.4v-1.5Z"/>
  <path class="cls-1" d="M69.3,247.98c-.72.18-1.46.32-2.2.4v1.6c.76-.08,1.5-.28,2.2-.6v-1.4Z"/>
  <path class="cls-1" d="M13.6,248.48v1.7c.73.12,1.46.19,2.2.2v-2c-.73.08-1.47.11-2.2.1Z"/>
  <path class="cls-1" d="M90.4,310.78l.2-.5-.5.3c-.64.29-1.31.53-2,.7v1.2c.91-.34,1.71-.93,2.3-1.7Z"/>
  <path class="cls-1" d="M4.6,279.78v1.7c.73.12,1.46.19,2.2.2v-1.9h-2.2Z"/>
  <path class="cls-1" d="M8,279.58v2.1h2.2v-2.6c-.72.21-1.46.38-2.2.5Z"/>
  <path class="cls-1" d="M1.8,280.78c.5.2,1.1.3,1.7.5v-1.6c-.68-.08-1.35-.21-2-.4l.3,1.5Z"/>
  <polygon class="cls-1" points="64.8 281.78 67 281.78 67 278.08 64.8 276.98 64.8 281.78"/>
  <rect class="cls-1" x="59.2" y="322.98" width="16.7" height="10"/>
  <path class="cls-1" d="M87.1,311.68c-.72.18-1.46.32-2.2.4v1.6c.76-.08,1.5-.28,2.2-.6v-1.4Z"/>
  <path class="cls-1" d="M12.4,286.18h-3.1c-2.08.02-4.16-.18-6.2-.6,1.88,6.05,4.61,11.81,8.1,17.1l1.2-.6v-15.9Z"/>
  <path class="cls-1" d="M16.9,306.28h-2.2v1.3c.7.9,1.5,1.8,2.2,2.7v-4Z"/>
  <path class="cls-1" d="M81.5,278.48l.3-.5-.6.3c-.96.45-1.96.79-3,1v1.4c1.31-.35,2.47-1.13,3.3-2.2Z"/>
  <path class="cls-1" d="M10.5,274.18l8.6-4.2v-15.1h-1.3c-7.8,0-13.5-2.1-15.6-6.9C.75,253.63.01,259.44,0,265.28c0,3.04.2,6.08.6,9.1,3.18,1.33,6.78,1.26,9.9-.2Z"/>
  <polygon class="cls-1" points="64.8 314.08 63.7 314.08 63.7 306.28 61.5 306.28 61.5 314.08 60.3 314.08 60.3 306.28 58.1 306.28 58.1 314.08 57 314.08 57 306.28 54.8 306.28 54.8 314.08 67 314.08 67 306.28 64.8 306.28 64.8 314.08"/>
  <polygon class="cls-1" points="71.5 314.08 73.7 314.08 73.7 309.18 71.5 307.98 71.5 314.08"/>
  <path class="cls-1" d="M55.9,322.98h-3.3v8.8c1.1.3,2.2.5,3.3.7v-9.5Z"/>
  <polygon class="cls-1" points="68.1 306.38 68.1 314.08 70.4 314.08 70.4 307.48 68.1 306.38"/>
  <path class="cls-1" d="M75.9,319.58v-2.2H24.2c.89.79,1.82,1.52,2.8,2.2h48.9Z"/>
  <path class="cls-1" d="M20.2,313.78v-7.5h1.1v7.8h2.2v-7.8h-5.6v5.2l2.3,2.3Z"/>
  <path class="cls-1" d="M77.1,310.78c-.23-.12-.46-.22-.7-.3l-1.6-.8v4.4h2.2l.1-3.3Z"/>
  <path class="cls-1" d="M16.9,275.98l-2.2,1.1v4.6h-1.1v-4.1l-1,.5c-.38.21-.78.38-1.2.5v3h5.6s-.1-5.6-.1-5.6Z"/>
  <path class="cls-1" d="M22.5,245.78l-1.2.9-.1.1-.2.1c-.2.1-.5.2-.7.3v3.2h2.2v-4.6Z"/>
  <path class="cls-1" d="M42.5,228.88c-.6-.9-1.1-1.9-1.7-3l-.5-1v25.7h2.2v-21.7Z"/>
  <path class="cls-1" d="M19.1,247.58c-.7.29-1.44.49-2.2.6v2.2h2.3l-.1-2.8Z"/>
  <rect class="cls-1" x="23.6" y="259.48" width="3.3" height="11.1"/>
  <path class="cls-1" d="M29.2,239.68c-.7.8-1.5,1.6-2.2,2.3v8.5h2.2v-10.8Z"/>
  <path class="cls-1" d="M35.8,250.58v-19.9c-.8,1.2-1.5,2.3-2.2,3.4v16.5h2.2Z"/>
  <path class="cls-1" d="M39.2,250.58v-25.7l-.5,1c-.6,1-1.1,2-1.7,3v21.7h2.2Z"/>
  <path class="cls-1" d="M32.5,235.58c-.7,1-1.5,1.9-2.2,2.8v12.1h2.2v-14.9Z"/>
  <polygon class="cls-1" points="26.9 273.98 24.7 273.98 24.7 281.78 23.6 281.78 23.6 273.98 21.4 273.98 21.4 281.78 20.2 281.78 20.2 274.38 18 275.48 18 281.78 26.9 281.78 26.9 273.98"/>
  <rect class="cls-1" x="34.7" y="290.68" width="12.3" height="12.3"/>
  <polygon class="cls-1" points="51.4 314.08 50.3 314.08 50.3 306.28 48.1 306.28 48.1 314.08 53.7 314.08 53.7 306.28 51.4 306.28 51.4 314.08"/>
  <rect class="cls-1" x="50.3" y="290.68" width="3.3" height="12.3"/>
  <rect class="cls-1" x="16.9" y="290.68" width="7.8" height="12.3"/>
  <polygon class="cls-1" points="38.1 314.08 40.3 314.08 40.3 306.28 41.4 306.28 41.4 314.08 43.6 314.08 43.6 306.28 44.7 306.28 44.7 314.08 47 314.08 47 306.28 38.1 306.28 38.1 314.08"/>
  <rect class="cls-1" x="24.7" y="306.28" width="2.2" height="7.8"/>
  <rect class="cls-1" x="28" y="306.28" width="2.2" height="7.8"/>
  <polygon class="cls-1" points="31.4 314.08 33.6 314.08 33.6 306.28 34.7 306.28 34.7 314.08 36.9 314.08 36.9 306.28 31.4 306.28 31.4 314.08"/>
  <polygon class="cls-1" points="58.1 273.98 58.1 281.78 60.3 281.78 60.3 274.78 58.7 273.98 58.1 273.98"/>
  <polygon class="cls-1" points="47 281.78 47 273.98 38.1 273.98 38.1 281.78 40.3 281.78 40.3 273.98 41.4 273.98 41.4 281.78 43.6 281.78 43.6 273.98 44.7 273.98 44.7 281.78 47 281.78"/>
  <polygon class="cls-1" points="28 273.98 28 281.78 33.6 281.78 33.6 273.98 34.7 273.98 34.7 281.78 37 281.78 37 273.98 31.4 273.98 31.4 281.78 30.3 281.78 30.3 273.98 28 273.98"/>
  <polygon class="cls-1" points="63.7 276.38 61.5 275.28 61.5 281.78 63.7 281.78 63.7 276.38"/>
  <rect class="cls-1" x="30.3" y="259.48" width="18.9" height="11.1"/>
  <path class="cls-1" d="M45.9,234.08c-.7-1.1-1.5-2.2-2.2-3.4v19.9h2.2v-16.5Z"/>
  <path class="cls-1" d="M70.4,281.78v-2.4c-.76-.18-1.5-.45-2.2-.8v3.2h2.2Z"/>
  <rect class="cls-1" x="28" y="290.68" width="3.3" height="12.3"/>
  <path class="cls-1" d="M78.2,314.08h2.2v-2.2c-.76-.11-1.5-.31-2.2-.6,0,0,0,2.8,0,2.8Z"/>
  <rect class="cls-1" x="57" y="290.68" width="7.8" height="12.3"/>
  <rect class="cls-1" x="16.9" y="285.08" width="47.9" height="2.2"/>
  <path class="cls-1" d="M49.2,238.48c-.7-.9-1.5-1.8-2.2-2.8v14.9h2.2v-12.1Z"/>
  <path class="cls-1" d="M59.2,250.38v-3.2c-.2-.1-.5-.2-.7-.3l-.2-.1-.1-.1-1.2-.9v4.6h2.2Z"/>
  <polygon class="cls-1" points="54.8 281.78 53.7 281.78 53.7 273.98 48.1 273.98 48.1 281.78 50.3 281.78 50.3 273.98 51.4 273.98 51.4 281.78 57 281.78 57 273.98 54.8 273.98 54.8 281.78"/>
  <path class="cls-1" d="M55.9,250.58v-.2h0v-5.5c-.78-.58-1.51-1.21-2.2-1.9v7.5h2.2v.1Z"/>
  <rect class="cls-1" x="52.5" y="259.48" width="3.3" height="11.1"/>
  <path class="cls-1" d="M52.5,250.58v-8.5c-.78-.72-1.52-1.49-2.2-2.3v10.8h2.2Z"/>
  <path class="cls-1" d="M83.7,312.08c-.73.02-1.47-.02-2.2-.1v2c.74-.01,1.47-.08,2.2-.2v-1.7Z"/>
  <polyline class="cls-1" points="50.5 332.98 50.5 332.18 50.5 322.98 35.6 322.98 35.6 326.88"/>
  <polyline class="cls-1" points="33.4 325.48 33.4 322.98 29.4 322.98"/>
  <path class="cls-1" d="M68.4,196.78c-27.95-.04-53.1,16.96-63.5,42.9l.4.6c1.6,2.2,6.5,4.7,11.4,3.4l2-.7,4.5-3.6c4.5-4.2,8.6-9.9,14-20.4-1.63-.86-2.64-2.56-2.6-4.4-.02-2.76,2.2-5.02,4.96-5.04,2.76-.02,5.02,2.2,5.04,4.96.01,1.88-1.03,3.61-2.7,4.48,5.4,10.6,9.5,16.3,14,20.4l4.5,3.6,2,.7c5,1.3,9.8-1.1,11.4-3.4l3.3-4.5.7,5.6c1.4,9.5-5.6,13.5-16.2,13.5h-1.3v14.9l8.9,4.4c5.7,2.8,11.8,0,13.7-2.6l3.3-4.5.7,5.5c1.2,9.6-5.9,13.5-16.5,13.5h-1.2v15.7l9.1,4.6c5.6,2.8,11.6,0,13.5-2.6l3.3-4.5.7,5.6c1,8.4-4.2,12.5-12.6,13.3l-2.9.1v14.2c37.19-6.5,62.07-41.91,55.58-79.1-5.72-32.77-34.21-56.66-67.48-56.6ZM87.25,219.23l2.81,6.12-5.8-3.34-4.82,4.5,1.25-6.55-5.8-3.35,6.56-.73,1.26-6.56,2.81,6.11,6.56-.71-4.83,4.51ZM118.36,256.7l6-2.87-3.16,5.94,4.63,4.92-6.58-1.26-3.05,5.93-1-6.72-6.58-1.27,6-2.88-.94-6.72,4.68,4.93ZM99.36,229.29l5.91,3.27,4.8-4.63-1.17,6.65,5.9,3.28-6.61.83-1.14,6.66-3-6.14-6.61.86,4.8-4.64-2.88-6.14ZM117.95,293.18l-5.75-3.3-4.84,4.51,1.25-6.58-5.79-3.33,6.57-.72,1.26-6.55,2.79,6.12,6.57-.72-4.84,4.5,2.78,6.07Z"/>
  <g>
    <path class="cls-1" d="M187.9,260.78c-7.05.11-13.85-2.6-18.9-7.52-5.17-4.77-8.05-11.52-7.91-18.55-.19-6.85,2.29-13.51,6.92-18.56,4.52-4.97,10.99-7.71,17.71-7.51,5.83.03,11.61.98,17.14,2.82l-.92,2.82c-5.25-1.63-10.72-2.49-16.22-2.54-5.78-.17-11.32,2.26-15.1,6.64-3.93,4.47-6.02,10.27-5.86,16.22-.1,6.16,2.37,12.08,6.81,16.34,4.29,4.39,10.19,6.82,16.33,6.73,4.92.12,9.82-.75,14.4-2.54l1.05,2.4c-2.18,1.18-4.55,1.99-7,2.4-2.78.55-5.61.84-8.45.85Z"/>
    <path class="cls-1" d="M254.64,259.93v-25.26h-34.64v25.26h-3.38v-50.44h3.38v22.15h34.64v-22.15h3.39v50.44h-3.39Z"/>
    <path class="cls-1" d="M276.66,259.93v-50.44h3.38v50.44h-3.38Z"/>
    <path class="cls-1" d="M301.91,217.53l.15,6v36.4h-3.39v-50.87h1.53l33.23,38.31c2.26,2.67,4,4.81,5.22,6.42-.19-2.26-.28-4.84-.28-7.76v-36.54h3.39v50.86h-1.56l-33.86-39c-2.35-2.67-3.86-4.45-4.52-5.36l.09,1.54Z"/>
    <path class="cls-1" d="M363.08,242.43l-7.26,17.5h-3.62l21.23-50.8h2l21.31,50.8h-3.81l-7.27-17.5h-22.58ZM374.2,214.78c-.13.27-.22.55-.28.84-.66,2-1.3,3.74-1.91,5.15l-7.76,18.77h20.18l-7.73-18.66c-1.67-3.59-2.5-5.63-2.5-6.1Z"/>
  </g>
  <g>
    <path class="cls-1" d="M164.06,326.03v-50.44h3.38v47.34h23.21v3.1h-26.59Z"/>
    <path class="cls-1" d="M204.2,308.53l-7.27,17.5h-3.59l21.23-50.8h2l21.3,50.8h-3.81l-7.26-17.5h-22.6ZM215.35,280.88c-.13.27-.22.55-.28.84-.66,2-1.3,3.74-1.91,5.15l-7.76,18.77h20.18l-7.76-18.7c-1.65-3.57-2.47-5.59-2.47-6.06Z"/>
    <path class="cls-1" d="M270.1,280.03c-3.23-1.4-6.71-2.13-10.23-2.15-6.87,0-10.31,2.54-10.31,7.62.02,2.27.85,4.46,2.33,6.18,1.62,1.96,3.53,3.67,5.65,5.08,2.21,1.48,4.42,3,6.63,4.55,2.18,1.52,4.09,3.41,5.64,5.57,1.52,2.04,2.33,4.52,2.33,7.06,0,4.28-1.43,7.51-4.3,9.7-2.87,2.19-6.83,3.27-11.89,3.24-4.62.13-9.16-1.23-12.95-3.88l1.7-2.54c3.3,2.18,7.18,3.33,11.14,3.31,4.05,0,7.15-.81,9.32-2.43,2.17-1.65,3.39-4.27,3.24-7-.04-2.21-.87-4.34-2.33-6-1.63-1.98-3.52-3.71-5.64-5.15-2.21-1.53-4.42-3.1-6.63-4.7-2.18-1.59-4.07-3.54-5.6-5.76-1.5-2.07-2.32-4.57-2.32-7.13-.12-3.09,1.26-6.04,3.7-7.93,2.47-1.95,5.81-2.92,10-2.93,4.05-.03,8.06.84,11.74,2.54l-1.22,2.75Z"/>
    <path class="cls-1" d="M296.2,278.55h-17.07v-3h37.53v3h-17.07v47.48h-3.39v-47.48Z"/>
  </g>
  <g>
    <path class="cls-1" d="M341.81,284.03l.14,6v36.4h-3.39v-50.87h1.55l33.23,38.32c2.26,2.67,4,4.81,5.22,6.43-.18-2.26-.28-4.85-.28-7.77v-36.55h3.39v50.89h-1.55l-33.87-39c-2.35-2.68-3.86-4.47-4.51-5.36l.07,1.51Z"/>
    <path class="cls-1" d="M400.29,326.43v-50.44h3.39v50.44h-3.39Z"/>
    <path class="cls-1" d="M428.87,284.88c-3.93,4.49-6.03,10.29-5.86,16.26-.12,6.12,2.28,12.02,6.63,16.33,4.22,4.38,10.08,6.81,16.16,6.7,4.65.13,9.27-.65,13.62-2.29v-20.71h3.38v22.3c-4.09,2.54-9.82,3.81-17.18,3.81-7,.15-13.75-2.6-18.66-7.58-5-4.87-7.76-11.59-7.62-18.56-.18-6.83,2.3-13.45,6.92-18.48,4.52-4.97,10.98-7.72,17.7-7.52,5.83.03,11.62.98,17.15,2.82l-.91,2.83c-5.26-1.64-10.72-2.49-16.23-2.54-5.77-.17-11.32,2.26-15.1,6.63Z"/>
    <path class="cls-1" d="M518.33,326.43v-25.26h-34.64v25.26h-3.39v-50.44h3.39v22.15h34.64v-22.15h3.38v50.44h-3.38Z"/>
    <path class="cls-1" d="M549.65,278.95h-17.07v-3h37.53v3h-17.07v47.48h-3.39v-47.48Z"/>
  </g>
  <polygon class="cls-1" points="29.7 253.88 25.8 253.88 23.6 253.88 23.6 256.08 55.9 256.08 55.9 253.88 29.7 253.88"/>
  <path class="cls-1" d="M25.8,243.08c-.7.7-1.5,1.3-2.2,1.9v5.6h2.3l-.1-7.5Z"/>
  <polygon class="cls-1" points="408.72 254.8 406.81 253.31 421.68 234.19 406.82 215.77 408.71 214.26 424.77 234.16 408.72 254.8"/>
  <polygon class="cls-1" points="420.31 254.8 418.4 253.31 433.28 234.19 418.42 215.77 420.3 214.26 436.36 234.16 420.31 254.8"/>
  <polygon class="cls-1" points="431.91 254.8 430 253.31 444.87 234.19 430.01 215.77 431.9 214.26 447.96 234.16 431.91 254.8"/>
</svg>