<?xml version="1.0" encoding="UTF-8"?>
<svg id="Layer_1" xmlns="http://www.w3.org/2000/svg" viewBox="0 0 521.1 155.8">
  <defs>
    <style>
      .cls-1 {
        fill: #64d7ff;
      }
    </style>
  </defs>
  <g id="wordmark">
    <g id="climate_market_now">
      <path class="cls-1" d="M161.1,30.5c-1.6-.6-3.2-1-4.8-1.3-1.7-.3-3.3-.4-5-.4-2.9,0-5.6.5-8,1.4s-4.4,2.3-6,4-2.9,3.8-3.8,6.3c-.9,2.5-1.3,5.2-1.3,8.3s.4,5.8,1.3,8.3c.9,2.4,2.1,4.5,3.8,6.3,1.6,1.7,3.7,3.1,6,4,2.4.9,5,1.4,8,1.4,1.7,0,3.4-.1,5-.4,1.7-.3,3.3-.7,4.8-1.3l.5,2.3c-1.4.6-3,1.1-4.9,1.4s-3.8.5-5.7.5c-3.4,0-6.5-.6-9.2-1.7s-5-2.6-6.8-4.6c-1.9-2-3.3-4.3-4.3-7.1-1-2.8-1.5-5.8-1.5-9.1s.5-6.3,1.5-9,2.4-5.1,4.3-7.1c1.9-2,4.1-3.5,6.8-4.6s5.7-1.7,9.2-1.7c1.9,0,3.8.2,5.7.5s3.5.8,4.9,1.4l-.5,2.2Z"/>
      <path class="cls-1" d="M168.8,70.4V27.2h2.9v40.8h18.5v2.5h-21.4v-.1Z"/>
      <path class="cls-1" d="M196.7,70.4V27.2h2.9v43.2h-2.9Z"/>
      <path class="cls-1" d="M231.7,58.9l16.7-31.7h2.4l3.1,43.3h-2.8l-2.5-38.4-15.5,30h-2.7l-15.5-30-2.5,38.3h-2.8l3.1-43.3h2.4l16.6,31.8Z"/>
      <path class="cls-1" d="M296.5,70.4h-2.9l-4.5-11.7h-21.5l-4.5,11.7h-2.9l17.2-43.2h2.1l17,43.2ZM268.6,56.3h19.6l-9.8-25.5-9.8,25.5Z"/>
      <path class="cls-1" d="M310.4,29.6v40.8h-2.9V29.6h-13.4v-2.5h29.6v2.5h-13.3Z"/>
      <path class="cls-1" d="M330.3,70.4V27.2h22.2v2.5h-19.4v17.4h18.6v2.5h-18.6v18.5h19.6v2.5h-22.4v-.2Z"/>
      <path class="cls-1" d="M153.2,110.9l16.6-31.8h2.4l3.2,43.3h-2.8l-2.5-38.4-15.5,30h-2.6l-15.5-30-2.5,38.4h-2.8l3.1-43.3h2.4l16.5,31.8Z"/>
      <path class="cls-1" d="M219,122.4h-2.9l-4.5-11.7h-21.5l-4.5,11.7h-2.9l17.1-43.3h2.1l17.1,43.3ZM191,108.3h19.6l-9.8-25.5-9.8,25.5Z"/>
      <path class="cls-1" d="M251.3,90.7c0,3.1-1,5.7-3.1,7.8s-4.8,3.5-8.3,4.4l15.9,19.6h-3.4l-15.3-19c-1.2.1-2.4.2-3.7.2h-3.8v18.7h-2.9v-43.3h9.6c2,0,3.8.2,5.6.7,1.8.5,3.4,1.2,4.8,2.1,1.4,1,2.5,2.1,3.3,3.6.9,1.5,1.3,3.2,1.3,5.2ZM248.5,90.9c0-1.6-.4-3.1-1.1-4.2-.7-1.2-1.6-2.1-2.8-2.9-1.1-.7-2.5-1.3-3.9-1.6-1.5-.3-3-.5-4.5-.5h-6.5v19.5h4c2.1,0,4-.2,5.8-.7s3.4-1.1,4.7-2c1.3-.9,2.4-1.9,3.2-3.2.7-1.3,1.1-2.8,1.1-4.4Z"/>
      <path class="cls-1" d="M266.1,100.3l20.2-21.1h3.8l-20.6,21.4,22.4,21.9h-3.9l-21.9-21.6v21.5h-2.9v-43.3h2.9v21.2Z"/>
      <path class="cls-1" d="M299.1,122.4v-43.3h22.2v2.5h-19.4v17.4h18.6v2.5h-18.6v18.5h19.6v2.5h-22.4v-.1Z"/>
      <path class="cls-1" d="M344.2,81.6v40.8h-2.9v-40.8h-13.4v-2.5h29.6v2.5h-13.3Z"/>
      <path class="cls-1" d="M411.1,122.4l-27.1-38.9v38.9h-2.7v-43.3h2.7l27.1,38.8v-38.8h2.7v43.3h-2.7Z"/>
      <path class="cls-1" d="M463,100.8c0,2.9-.5,5.8-1.4,8.5s-2.2,5.1-4,7.1c-1.8,2.1-3.9,3.7-6.4,4.9s-5.4,1.9-8.6,1.9-6.1-.6-8.6-1.9c-2.5-1.2-4.6-2.9-6.4-4.9-1.8-2.1-3.1-4.4-4-7.1-.9-2.7-1.4-5.5-1.4-8.5s.5-5.8,1.4-8.5,2.2-5.1,4-7.1c1.8-2.1,3.9-3.7,6.4-4.9s5.4-1.9,8.6-1.9,6.1.6,8.6,1.9c2.5,1.2,4.6,2.9,6.4,4.9,1.8,2.1,3.1,4.4,4,7.1,1,2.7,1.4,5.6,1.4,8.5ZM460.2,100.8c0-2.7-.4-5.3-1.2-7.7s-2-4.5-3.5-6.3-3.4-3.3-5.5-4.3c-2.2-1.1-4.6-1.6-7.3-1.6s-5.1.5-7.3,1.6c-2.2,1.1-4,2.5-5.5,4.3s-2.7,3.9-3.5,6.3c-.8,2.4-1.2,5-1.2,7.7s.4,5.3,1.2,7.7c.8,2.4,2,4.5,3.5,6.3s3.4,3.3,5.5,4.3c2.2,1.1,4.6,1.6,7.3,1.6s5.1-.5,7.3-1.6c2.2-1.1,4-2.5,5.5-4.3s2.7-3.9,3.5-6.3,1.2-5,1.2-7.7Z"/>
      <path class="cls-1" d="M507.1,118.1l11.2-38.9h2.8l-12.7,43.2h-2.6l-12.2-40.6-12.1,40.6h-2.6l-12.7-43.3h2.8l11.2,38.9,11.8-38.9h3.4l11.7,39Z"/>
    </g>
  </g>
  <g id="icon">
    <g>
      <path class="cls-1" d="M90.1,53.2h-30.1l-15.1-26.1L60,1h30.1l15.1,26.1-15.1,26.1ZM60.8,51.8h28.5l14.3-24.7-14.3-24.7h-28.5l-14.3,24.7,14.3,24.7Z"/>
      <circle class="cls-1" cx="89.6" cy="52.5" r="1.7"/>
      <circle class="cls-1" cx="60.4" cy="1.7" r="1.7"/>
      <circle class="cls-1" cx="104.3" cy="27.1" r="1.7"/>
      <circle class="cls-1" cx="89.6" cy="1.7" r="1.7"/>
      <rect class="cls-1" x="74.88" y="-2.18" width=".2" height="58.6" transform="translate(-3.51 41.12) rotate(-30)"/>
      <rect class="cls-1" x="89.6" y="1.8" width=".2" height="50.8"/>
      <rect class="cls-1" x="45.7" y="27.1" width="58.6" height=".2"/>
      <rect class="cls-1" x="59.7" y="1.8" width="1.4" height="50.8"/>
      <rect class="cls-1" x="45.76" y="27.1" width="58.6" height=".2" transform="translate(14 78.64) rotate(-60.03)"/>
      <rect class="cls-1" x="42.32" y="14.39" width="50.8" height=".2" transform="translate(1.81 35.77) rotate(-29.97)"/>
      <rect class="cls-1" x="67.65" y="14.48" width=".2" height="50.8" transform="translate(-.66 78.61) rotate(-60)"/>
      <rect class="cls-1" x="57.03" y="39.18" width="50.8" height="1.4" transform="translate(-8.9 46.54) rotate(-29.99)"/>
      <rect class="cls-1" x="81.72" y="-10.95" width="1.4" height="50.8" transform="translate(28.7 78.6) rotate(-60)"/>
    </g>
    <path class="cls-1" d="M46.1,78.6h-30.1L.9,52.5l15.1-26.1h30.1l15.1,26.1-15.1,26.1ZM16.8,77.2h28.5l14.3-24.7-14.3-24.7h-28.5L2.5,52.5l14.3,24.7Z"/>
    <circle class="cls-1" cx="16.4" cy="77.9" r="1.7"/>
    <circle class="cls-1" cx="45.7" cy="77.9" r="1.7"/>
    <circle class="cls-1" cx="16.4" cy="27.1" r="1.7"/>
    <circle class="cls-1" cx="1.7" cy="52.5" r="1.7"/>
    <circle class="cls-1" cx="60.4" cy="52.5" r="1.7"/>
    <circle class="cls-1" cx="45.7" cy="27.2" r="1.7"/>
    <rect class="cls-1" x="30.98" y="23.18" width=".2" height="58.6" transform="translate(-22.08 22.57) rotate(-30)"/>
    <rect class="cls-1" x="45" y="27.1" width="1.4" height="50.8"/>
    <rect class="cls-1" x="1.7" y="52.4" width="58.6" height=".2"/>
    <rect class="cls-1" x="16.3" y="27.1" width=".2" height="50.8"/>
    <rect class="cls-1" x="1.7" y="52.47" width="58.6" height=".2" transform="translate(-30.03 53.17) rotate(-60.03)"/>
    <rect class="cls-1" x="-1.67" y="39.21" width="50.8" height="1.4" transform="translate(-16.77 17.21) rotate(-29.99)"/>
    <rect class="cls-1" x="22.99" y="39.84" width="1.4" height="50.8" transform="translate(-44.66 53.13) rotate(-60)"/>
    <rect class="cls-1" x="12.98" y="65.1" width="50.8" height=".2" transform="translate(-27.43 27.89) rotate(-29.97)"/>
    <rect class="cls-1" x="38.34" y="14.46" width=".2" height="50.8" transform="translate(-15.3 53.22) rotate(-60)"/>
    <path class="cls-1" d="M46.1,129.4h-30.1L.9,103.3l15.1-26.1h30.1l15.1,26.1-15.1,26.1ZM16.8,128h28.5l14.3-24.7-14.3-24.7h-28.5l-14.3,24.7,14.3,24.7Z"/>
    <circle class="cls-1" cx="16.4" cy="128.7" r="1.7"/>
    <circle class="cls-1" cx="45.7" cy="128.7" r="1.7"/>
    <circle class="cls-1" cx="1.7" cy="103.3" r="1.7"/>
    <circle class="cls-1" cx="60.4" cy="103.3" r="1.7"/>
    <rect class="cls-1" x="30.99" y="73.98" width=".2" height="58.6" transform="translate(-47.47 29.38) rotate(-30)"/>
    <rect class="cls-1" x="45.6" y="77.9" width=".2" height="50.8"/>
    <rect class="cls-1" x="1.7" y="103.2" width="58.6" height=".2"/>
    <rect class="cls-1" x="15.7" y="77.9" width="1.4" height="50.8"/>
    <rect class="cls-1" x="1.72" y="103.26" width="58.6" height=".2" transform="translate(-74.02 78.6) rotate(-60.03)"/>
    <rect class="cls-1" x="-1.7" y="90.52" width="50.8" height=".2" transform="translate(-42.1 23.95) rotate(-29.97)"/>
    <rect class="cls-1" x="23.61" y="90.63" width=".2" height="50.8" transform="translate(-88.63 78.55) rotate(-60)"/>
    <rect class="cls-1" x="12.99" y="115.3" width="50.8" height="1.4" transform="translate(-52.85 34.73) rotate(-29.99)"/>
    <rect class="cls-1" x="37.68" y="65.2" width="1.4" height="50.8" transform="translate(-59.27 78.53) rotate(-60)"/>
    <path class="cls-1" d="M90.1,154.8h-30.1l-15.1-26.1,15.1-26.1h30.1l15.1,26.1-15.1,26.1ZM60.8,153.4h28.5l14.3-24.7-14.3-24.7h-28.5l-14.3,24.7,14.3,24.7Z"/>
    <g>
      <circle class="cls-1" cx="60.4" cy="154.1" r="1.7"/>
      <circle class="cls-1" cx="89.6" cy="154.1" r="1.7"/>
      <circle class="cls-1" cx="104.3" cy="128.7" r="1.7"/>
      <circle class="cls-1" cx="89.6" cy="103.3" r="1.7"/>
      <rect class="cls-1" x="74.9" y="99.41" width=".2" height="58.6" transform="translate(-54.31 54.75) rotate(-30)"/>
      <rect class="cls-1" x="89" y="103.3" width="1.4" height="50.8"/>
      <rect class="cls-1" x="45.7" y="128.6" width="58.6" height=".2"/>
      <rect class="cls-1" x="60.3" y="103.3" width=".2" height="50.8"/>
      <rect class="cls-1" x="45.71" y="128.63" width="58.6" height=".2" transform="translate(-73.98 129.41) rotate(-60.03)"/>
      <rect class="cls-1" x="42.29" y="115.31" width="50.8" height="1.4" transform="translate(-48.93 49.38) rotate(-29.99)"/>
      <rect class="cls-1" x="67" y="116" width="1.4" height="50.8" transform="translate(-88.61 129.33) rotate(-60)"/>
      <rect class="cls-1" x="57" y="141.28" width="50.8" height=".2" transform="translate(-59.6 60.06) rotate(-29.97)"/>
      <rect class="cls-1" x="82.27" y="90.57" width=".2" height="50.8" transform="translate(-59.25 129.32) rotate(-60)"/>
    </g>
  </g>
  <g>
    <path class="cls-1" d="M369.9,31.4l1.4-1.1,11.3,18-11.3,18-1.4-1.1,10.4-16.9-10.4-16.9Z"/>
    <path class="cls-1" d="M379.9,31.4l1.4-1.1,11.3,18-11.3,18-1.4-1.1,10.4-16.9-10.4-16.9Z"/>
    <path class="cls-1" d="M389.9,31.4l1.4-1.1,11.3,18-11.3,18-1.4-1.1,10.4-16.9-10.4-16.9Z"/>
  </g>
</svg>