<?xml version="1.0" encoding="UTF-8"?><svg id="logo" xmlns="http://www.w3.org/2000/svg" viewBox="0 0 253.35 50.3"><defs><style>.cls-1{fill:#1e75bb;}.cls-2{fill:#282660;}</style></defs><path class="cls-2" d="m73.75,36.3l-6.4-11.4-3.8,4.5v7h-4.7V10.9h4.7v8.6c0,.9,0,3-.1,3.8.3-.5,1.2-1.6,1.9-2.4l7.3-9.9h5.7l-7.6,10,8.7,15.5h-5.7v-.2Z"/><path class="cls-2" d="m91.75,24c-.7-.7-1.7-1.2-2.7-1.2-1.8,0-3,.8-3,3.8v9.6h-4.7v-17.6h4.7v1.2c.8-.8,2-1.5,3.6-1.5,1.5,0,2.7.6,3.3,1.2l-1.2,4.5h0Z"/><path class="cls-2" d="m104.15,28.9c-.8-.5-1.6-.7-3.2-.7-1.8,0-2.7.8-2.7,2.2,0,1.2.7,2.4,2.7,2.4,1.5,0,2.7-.8,3.2-1.6v-2.3h0Zm0,7.4v-1.2c-.8.9-2.3,1.5-4,1.5-3.3,0-6.6-2-6.6-6.3,0-3.9,3.2-5.9,7.2-5.9,1.6,0,2.7.3,3.4.7v-.9c0-1.2-.8-2.3-2.5-2.3-2.1,0-3.2.3-4.9,1.2l-1.8-3.2c2.1-1.2,3.8-1.8,6.7-1.8,4.3,0,7.2,2.2,7.2,6.2v11.9c0,.1-4.7.1-4.7.1Z"/><path class="cls-2" d="m122.85,36.3v-9.6c0-3.2-1.1-4.1-3-4.1s-3,1-3,4v9.7h-4.7v-17.7h4.7v1.2c.8-.8,2.3-1.5,4.1-1.5,4.5,0,6.6,3.1,6.6,8.1v10h-4.7v-.1Z"/><path class="cls-2" d="m137.45,22.3c-1.7,0-2.7,1.4-2.9,3.2h6.1c-.1-1.6-1.1-3.2-3.2-3.2h0Zm7.7,6.7h-10.6c.2,2.4,2,3.3,3.6,3.3,1.3,0,2.4-.5,3-1.2l3.3,2.8c-1.4,1.8-4,2.9-6.4,2.9-5.1,0-8.3-3.6-8.3-9.2s3.4-9.2,7.9-9.2,7.5,4.2,7.5,9.2v1.4h0Z"/><path class="cls-1" d="m155.85,36.7c-3.9,0-7.4-1.7-9.2-4.3l3.4-3c1.6,1.9,3.8,2.7,6,2.7,2.8,0,4.1-.8,4.1-2.6,0-1.5-.8-2.2-5.3-3.2-4.4-1-7.4-2.4-7.4-7,0-4.3,3.8-6.9,8.4-6.9,3.7,0,6.4,1.4,8.6,3.7l-3.4,3.3c-1.5-1.5-3.2-2.4-5.4-2.4-2.5,0-3.4,1.1-3.4,2.1,0,1.5,1,2,4.8,2.8,3.8.8,7.9,2.2,7.9,7.3.2,4.5-2.6,7.5-9.1,7.5h0Z"/><path class="cls-1" d="m178.85,36.3v-9.6c0-3.2-1.1-4.1-3-4.1s-3,1-3,4v9.7h-4.7V11.1l4.7-2.3v11.1c.8-.8,2.3-1.5,4.1-1.5,4.5,0,6.6,3.1,6.6,8.1v10h-4.7v-.2Z"/><path class="cls-1" d="m196.35,28.9c-.8-.5-1.6-.7-3.2-.7-1.8,0-2.7.8-2.7,2.2,0,1.2.7,2.4,2.7,2.4,1.5,0,2.7-.8,3.2-1.6v-2.3h0Zm0,7.4v-1.2c-.8.9-2.3,1.5-4,1.5-3.3,0-6.6-2-6.6-6.3,0-3.9,3.2-5.9,7.2-5.9,1.6,0,2.7.3,3.4.7v-.9c0-1.2-.8-2.3-2.5-2.3-2.1,0-3.2.3-4.9,1.2l-1.8-3.2c2.1-1.2,3.8-1.8,6.6-1.8,4.3,0,7.2,2.2,7.2,6.2v11.9h-4.6v.1Z"/><path class="cls-1" d="m214.75,24c-.7-.7-1.6-1.2-2.7-1.2-1.8,0-3,.8-3,3.8v9.6h-4.7v-17.6h4.7v1.2c.8-.8,2-1.5,3.6-1.5,1.5,0,2.7.6,3.3,1.2l-1.2,4.5h0Z"/><path class="cls-1" d="m224.05,22.3c-1.7,0-2.7,1.4-2.9,3.2h6.1c-.2-1.6-1.1-3.2-3.2-3.2h0Zm7.6,6.7h-10.6c.2,2.4,2,3.3,3.6,3.3,1.3,0,2.4-.5,3-1.2l3.3,2.8c-1.4,1.8-4,2.9-6.4,2.9-5.1,0-8.3-3.6-8.3-9.2s3.4-9.2,7.9-9.2,7.5,4.2,7.5,9.2c.1.6.1,1,0,1.4h0Z"/><path class="cls-1" d="m240.75,36.7c-2.8,0-5.5-.8-7.4-2.1l1.6-3.5c1.9,1,3.9,1.6,6.1,1.6,1.8,0,2.4-.4,2.4-1.3,0-.8-.6-1.2-2.6-1.8-4.2-1.3-7-2.3-7-6.1s2.9-5.3,7.1-5.3c2.2,0,4.7.7,6.5,1.7l-1.5,3.7c-1.8-1-3.7-1.4-5.2-1.4-1.9,0-2.4.4-2.4,1.2s.5,1,3.7,2.1c3.2,1,5.9,2.2,5.9,5.7,0,4.1-3.3,5.5-7.2,5.5h0Z"/><path class="cls-2" d="m252.95,15l-.9,1.8h-.4l-.9-1.8v2.7h-.4v-3.5h.4l1.1,2.2,1.1-2.2h.4v3.5h-.4v-2.7h0Zm-4.2,2.7h-.4v-3.2h-1v-.3h2.4v.3h-1v3.2h0Z"/><path class="cls-2" d="m.35,0v50.3h4.6v-3.1h37.9v3.1h4.6V0C47.55,0,.35,0,.35,0Zm42.5,42.5H4.95V4.7h37.9v37.8Z"/><polygon class="cls-1" points="36.65 10.9 36.65 23.7 32.05 28.3 32.05 15.5 19.25 15.5 23.85 10.9 36.65 10.9"/><polygon class="cls-1" points="36.65 27 36.65 36.3 11.15 36.3 11.15 10.9 20.55 10.9 15.85 15.5 15.85 31.7 32.05 31.7 36.65 27"/></svg>