<?xml version="1.0" encoding="UTF-8"?>
<svg xmlns="http://www.w3.org/2000/svg" viewBox="0 0 1000 1000">
  <defs>
    <style>
      .cls-1 {
        fill: #64d7ff;
        fill-rule: evenodd;
      }
    </style>
  </defs>
  <g id="_圖層_1" data-name="圖層_1" image-rendering="optimizeQuality" shape-rendering="geometricPrecision" text-rendering="geometricPrecision">
    <path class="cls-1" d="M906.25,0H93.75C42.19,0,0,42.19,0,93.75v812.49c0,51.57,42.19,93.75,93.75,93.75h812.5c51.56.01,93.75-42.18,93.75-93.74V93.75c0-51.56-42.19-93.75-93.75-93.75ZM684.02,319.72c-32.42-21.13-55.81-54.96-63.11-94.38-1.57-8.51-2.45-17.28-2.45-26.25h-103.46l-.17,414.65c-1.74,46.43-39.96,83.7-86.8,83.7-14.57,0-28.27-3.63-40.35-9.99-27.68-14.57-46.63-43.58-46.63-76.97,0-47.96,39.02-86.98,86.97-86.98,8.95,0,17.54,1.48,25.66,4.01v-105.62c-8.41-1.15-16.95-1.86-25.66-1.86-105.01,0-190.43,85.43-190.43,190.45,0,64.42,32.18,121.44,81.3,155.92,30.93,21.72,68.57,34.51,109.14,34.51,105.01,0,190.43-85.43,190.43-190.43v-210.27c40.58,29.12,90.3,46.28,143.95,46.28v-103.46c-28.89,0-55.8-8.59-78.39-23.31Z"/>
  </g>
</svg>