<?xml version="1.0" encoding="UTF-8"?>
<svg id="Layer_1" xmlns="http://www.w3.org/2000/svg" version="1.1" viewBox="0 0 2500 2372">
  <!-- Generator: Adobe Illustrator 29.3.1, SVG Export Plug-In . SVG Version: 2.1.0 Build 151)  -->
  <defs>
    <style>
      .st0 {
        fill: none;
        stroke: #072b45;
        stroke-miterlimit: 54.3;
        stroke-width: 10.9px;
      }

      .st1 {
        fill: #072b45;
      }

      .st2 {
        fill: #fdfefe;
      }
    </style>
  </defs>
  <path class="st2" d="M448.9,2069.4c-9.8-4.3-16.8-9.2-5.4-19,7.1-5.4,14.7-10.3,22.3-15.2,71.2-46.2,138-96.7,182-171.1,36.9-61.9,31-98.3-15.2-144-257.5-257.5-370.5-565.6-314-929.6,32.1-205.4,126-383,263-537.3,82.6-93.4,180.9-169,288.5-232,6.5-3.8,15.8-4.9,16.8-14.7-2.2-5.4-6-3.8-9.2-3.8-183.1,0-366.2-3.8-548.7,1.1C153.9,9.2,2.9,144.5,3.4,338.5c1.1,566.7,0,1133.3,0,1700.5s134.2,323.3,309.7,329.8c148.3,6,296.6,1.1,445.5.5,10.9.5,21.7,1.1,32.6,1.1h784.5c195.6,0,391.2,1.1,586.8,0,181.5,0,328.7-146.7,328.7-327.6v-321.1c0-7.6,2.7-15.8-2.2-23.9-9.8.5-13.6,8.7-19,14.1-105.4,105.9-229.8,191.2-366.2,251.5-334.1,147.2-674.2,157.6-1019.2,39.1-29.9-10.9-62.5-12-93.4-4.3-45.6,11.4-90.7,25-135.8,38.6-132.6,41.3-267.8,59.8-406.4,32.6h0ZM842.8,1153.9c9.2-12,14.1-19,19.6-26.1,71.2-90.2,142.3-180.4,213.5-271.1,20.6-26.1,41.3-52.7,54.3-84.2,15.2-35.9-1.1-69.5-38-82.6-16.3-4.9-33.7-7.1-51.1-6-96.7-.5-194-.5-290.7,0-13.6,0-27.2,1.6-40.2,4.9-30.4,7.6-48.9,38.6-41.3,69.5,5.4,20.6,21.7,36.9,42.4,41.8,13,3.3,26.6,4.9,40.2,4.3,58.7.5,117.9,0,176.6.5,6.5,0,14.7-4.3,19.6,5.4-4.9,6.5-9.8,13-14.7,19-84.2,106.5-167.9,213.5-252.1,320-20.6,26.6-31.5,56-16.3,88.6s46.2,38.6,77.7,40.7c25,1.6,50.5.5,76.1.5,88,0,175.5.5,263.5-.5,46.7-.5,71.7-28.8,66.8-72.3-3.8-34.2-27.2-52.2-70.6-52.7-76.6-.5-153.2,0-235.2,0h0ZM1473,868.2c-67.9-59.2-142.9-63-216.2-19.6-89.1,52.2-121.7,137.5-110.8,236.3,10.3,92.4,50.5,167.9,147.2,198.8,60.3,19.6,116.3,12.5,165.7-27.7,13-10.3,16.8-8.1,26.1,3.3,17.9,22.8,48.9,31.5,76.1,21.2,27.2-8.1,45.1-33.1,45.1-61.4.5-108.7,1.1-217.3,0-326-.5-43.5-41.3-71.2-83.7-62.5-23.4,4.9-36.4,20.6-49.4,37.5h0ZM1849.5,1069.7c-2.2,135.8,110.3,238.5,251.5,224.4,129.8-13,214.1-110.3,209.7-247.7-4.3-135.8-105.4-228.7-243.9-224.4-129.8,3.8-221.7,108.1-217.3,247.7ZM1801.7,961.6c0-85.3.5-170,0-255.3,0-43.5-27.7-70.6-69-70.1-40.2.5-66.8,27.7-67.4,69.5-.5,25.5,0,50.5,0,76.1v431.9c0,33.7,20.6,63,47.8,70.1,37.5,10.3,76.1-12,85.8-49.4,1.6-6.5,2.7-13,2.2-20.1,1.1-84.2.5-168.4.5-252.6h0Z"/>
  <path class="st1" d="M758.1,2369.8c-148.3,0-297.2,4.9-445.5-.5-175.5-7.1-309.7-154.3-309.7-329.8,0-566.7,1.1-1133.3,0-1700.5C2.9,145.1,154.5,9.8,328.9,4.9,511.4,0,694.5,3.8,877.6,3.8s7.6-1.6,9.2,3.8c-1.1,9.8-10.9,10.9-16.8,14.7-107.6,63-205.9,138.5-288.5,232-136.4,154.3-230.9,331.4-263,537.3-56.5,363.5,57,672,314,929.6,45.6,46.2,51.6,82,15.2,144-44,74.4-110.8,125-182,171.1-7.6,4.3-15.2,9.8-22.8,14.7-11.4,9.8-4.3,14.7,5.4,19,2.2,4.9,4.9,9.2,8.1,13.6,62.5,55.4,121.7,114.6,183.1,171.1,28.8,26.6,57.6,54.3,85.3,82,11.4,10.3,30.4,13.6,33.1,33.1Z"/>
  <path class="st1" d="M758.1,2369.8c-2.7-19-21.7-22.3-33.1-33.7-27.7-28.3-56.5-55.4-85.3-82-61.4-56.5-120.6-115.7-183.1-171.1-3.3-4.3-6-8.7-8.1-13.6,138.5,27.2,273.8,8.7,406.9-32.1,45.1-13.6,90.2-27.2,135.8-38.6,31-8.1,63.6-6.5,93.4,4.3,344.4,118.4,684.5,107.6,1019.2-39.1,136.4-60.3,260.8-145.1,366.2-251,5.4-5.4,9.2-13.6,19-14.1,4.9,7.6,2.2,15.8,2.2,23.9v317.8c1.1,181.5-144.5,329.2-326,330.9h-2.7c-195.6,1.1-391.2,0-586.8,0h-785.1c-10.9-1.1-21.7-1.6-32.6-1.6h0Z"/>
  <path class="st1" d="M842.8,1153.9c82,0,159.2-.5,235.8,0,42.9.5,66.3,18.5,70.6,52.7,4.9,42.9-20.1,71.7-66.8,72.3-88,1.1-175.5.5-263.5.5s-50.5,1.1-76.1-.5c-31.5-1.6-62.5-8.1-77.7-40.7s-4.3-61.9,16.3-88.6c83.7-106.5,167.9-213.5,252.1-320,4.9-6.5,9.8-13,14.7-19-5.4-9.2-13-4.9-19.6-5.4-58.7-.5-117.9,0-176.6-.5-13.6,0-27.2-1.6-40.2-4.3-31-7.1-50-38-42.9-68.5,4.9-20.6,21.2-37.5,41.8-42.4,13-3.3,26.6-4.9,40.2-4.9,96.7-.5,194-.5,290.7,0,17.4-.5,34.2,1.6,51.1,6,36.9,12.5,52.7,46.7,38,82.6-13,31-33.7,57.6-54.3,84.2-71.2,90.7-142.3,180.9-213.5,270.6-6,7.1-11.4,14.1-20.1,26.1h0Z"/>
  <path class="st1" d="M1473,868.2c13-16.8,26.6-32.6,48.9-36.9,42.9-8.7,83.1,19,83.7,62.5,1.6,108.7,1.1,217.3,0,326,0,28.3-18.5,53.2-45.1,61.4-27.2,10.3-58.1,2.2-76.1-21.2-9.2-11.4-13-13.6-26.1-3.3-49.4,40.2-105.4,47.3-165.7,27.7-96.7-31.5-136.4-107-147.2-198.8-11.4-99.4,21.7-184.2,110.8-236.3,73.9-44,148.9-40.2,216.8,19h0ZM1280.7,1066.5c1.1,23.9,8.7,46.7,22.8,65.7,29.3,39.1,85.3,47.3,125,17.9,6.5-4.9,12.5-10.9,17.9-17.9,30.4-41.3,30.4-109.2,0-150.5-15.2-21.2-39.1-33.7-64.7-34.2-59.8-3.8-101.6,42.4-101.1,119ZM1849.5,1069.7c-4.3-139.6,87.5-243.9,217.9-247.7,138.5-4.3,239.6,88.6,243.9,224.4,4.3,137.5-79.9,234.7-209.7,247.7-141.8,14.1-254.3-88.6-252.1-224.4h0ZM1985.9,1056.7c-1.1,27.2,7.1,53.8,23.4,76.1,29.9,39.1,85.8,46.7,125,16.3,6-4.3,10.9-9.8,15.8-15.2,31.5-41.3,31.5-110.8.5-152.1-15.2-20.6-39.1-33.7-64.7-34.2-58.7-3.3-100,41.3-100,109.2ZM1801.7,961.6c0,84.2.5,168.4,0,252.6.5,38.6-29.9,70.6-68.5,71.7-6.5,0-13.6-.5-20.1-2.2-27.2-7.1-47.8-35.9-47.8-70.1v-431.9c0-25.5-.5-50.5,0-76.1.5-41.8,27.2-69,67.4-69,41.3-.5,69,26.6,69,70.1.5,84.8,0,170,0,254.8Z"/>
  <path class="st2" d="M1280.7,1066.5c-.5-76.6,41.3-122.8,100.5-119.5,25.5,1.1,49.4,13.6,64.7,34.8,30.4,40.7,30.4,109.2,0,150.5-29.3,39.1-85.3,47.3-125,17.9-6.5-4.9-12.5-10.9-17.9-17.9-13.6-19-21.2-41.8-22.3-65.7h0ZM1985.9,1056.7c0-67.4,41.3-112.5,100-109.2,25.5.5,49.4,13.6,64.7,34.2,31,41.3,31,111.4-.5,152.1-30.4,38.6-86.9,45.1-125.5,14.7-6-4.3-10.9-9.8-15.2-15.8-16.3-22.3-23.9-48.9-23.4-76.1Z"/>
  <path class="st0" d="M358.7,5.4h1782.5c195,0,353.1,158.1,353.1,353.1v1646.2c0,195-158.1,353.1-353.1,353.1H358.7c-195,0-353.1-158.1-353.1-353.1V358.6C5.6,163.5,163.7,5.4,358.7,5.4Z"/>
</svg>