<svg xmlns="http://www.w3.org/2000/svg" width="180" height="45" viewBox="0 0 180 45">
    <defs>
        <style>
            .cls-1{fill:#fff}.cls-2{fill:#f0f0f0}.cls-3{fill:#00789e}.cls-4{fill:#00526d}.cls-5{fill:#59b3c4}.cls-6{fill:#3c3d3d}
        </style>
    </defs>
    <g id="kyber_logo" transform="translate(-293 -401)">
        <rect id="Rectangle_745" width="180" height="45" class="cls-1" data-name="Rectangle 745" rx="22.5" transform="translate(293 401)"/>
        <g id="Group_1333" data-name="Group 1333" transform="translate(-113.805 31.094)">
            <path id="Path_1980" d="M445.517 375.073l-8.348 4.82v24.433l8.348 4.82 8.348-4.82v-24.433z" class="cls-2" data-name="Path 1980"/>
            <g id="Group_1329" data-name="Group 1329" transform="translate(439.126 377.524)">
                <path id="Path_1981" d="M465.77 391.41l-6.391 8.255 6.391 8.109z" class="cls-3" data-name="Path 1981" transform="translate(-452.989 -387.72)"/>
                <path id="Path_1982" d="M442.376 391.41l6.391 8.255-6.391 8.109z" class="cls-3" data-name="Path 1982" transform="translate(-442.376 -387.72)"/>
                <path id="Path_1983" d="M448.767 393.537v-11.944l-6.391 3.69z" class="cls-4" data-name="Path 1983" transform="translate(-442.376 -381.593)"/>
                <path id="Path_1984" d="M448.767 413.372v17.257l-6.391-3.69v-5.459z" class="cls-5" data-name="Path 1984" transform="translate(-442.376 -401.428)"/>
            </g>
            <g id="Group_1330" data-name="Group 1330" transform="translate(465.043 379.881)">
                <path id="Path_1985" d="M514.853 395.632L513.685 397v4.286h-2.355v-13.421h2.355v6.4l5.251-6.4h2.918L516.4 394.2l5.856 7.083h-2.9z" class="cls-6" data-name="Path 1985" transform="translate(-511.33 -387.865)"/>
                <path id="Path_1986" d="M565.286 395.713l-5.212-7.848h2.7l3.7 5.755 3.662-5.755h2.7l-5.191 7.848v5.574h-2.356z" class="cls-6" data-name="Path 1986" transform="translate(-541.753 -387.865)"/>
                <path id="Path_1987" d="M617.974 387.865h6.6c2.455 0 3.823 1.529 3.823 3.42a3.016 3.016 0 0 1-2.333 3.079 3.3 3.3 0 0 1 2.6 3.3c0 2.074-1.389 3.623-3.9 3.623h-6.782zm6.118 5.554a1.747 1.747 0 1 0 0-3.482h-3.762v3.482zm.1 5.8a1.809 1.809 0 0 0 2.053-1.872 1.844 1.844 0 0 0-2.053-1.852h-3.862v3.724z" class="cls-6" data-name="Path 1987" transform="translate(-577.891 -387.865)"/>
                <path id="Path_1988" d="M672.717 387.865h9.2v2.072h-6.841v3.482h6.7v2.072h-6.7v3.724h6.841v2.072h-9.2z" class="cls-6" data-name="Path 1988" transform="translate(-612.058 -387.865)"/>
                <path id="Path_1989" d="M728.349 396.276h-2.334v5.011h-2.356v-13.422h5.9a4.074 4.074 0 0 1 4.387 4.206 3.765 3.765 0 0 1-3.179 3.944l3.28 5.272h-2.717zm.885-6.339h-3.22v4.263h3.22a2.139 2.139 0 1 0 0-4.266z" class="cls-6" data-name="Path 1989" transform="translate(-643.853 -387.865)"/>
            </g>
            <g id="Group_1331" data-name="Group 1331" transform="translate(517.137 397.059)">
                <path id="Path_1990" d="M650.349 435.9a5.6 5.6 0 0 1 1.35.782l-.442.607a5.237 5.237 0 0 0-1.326-.836zm-.276 4.672a24.205 24.205 0 0 0 1.176-2.58l.6.418a24.3 24.3 0 0 1-1.034 2.375.232.232 0 0 1 .055.142.171.171 0 0 1-.023.1zm.671-6.81a5.594 5.594 0 0 1 1.343.829c-.2.253-.324.425-.45.6a5.633 5.633 0 0 0-1.317-.884zm6.18 4.617h-1.414v1.972c0 .607-.2.749-1.412.734a2.882 2.882 0 0 0-.2-.647c.174.007.339.007.481.007.379 0 .418 0 .418-.118v-1.949h-1.278V435.6h1.152c.056-.261.118-.561.159-.821h-1.713v1.515a8.7 8.7 0 0 1-1.082 4.774 3.144 3.144 0 0 0-.631-.4 7.672 7.672 0 0 0 .986-4.378v-2.19h4.933v.679h-1.846l.307.079c-.031.055-.087.087-.2.087a7.962 7.962 0 0 1-.2.655h1.539zm-2.438.6c-.015.055-.087.087-.174.087a5.833 5.833 0 0 1-1.184 1.618 5.131 5.131 0 0 0-.512-.394 4.643 4.643 0 0 0 1.1-1.555zm-.3-2.793v.529h2.044v-.529zm0 1.073v.544h2.044v-.544zm2.6 3.37A9.1 9.1 0 0 0 655.8 439l.607-.3a8.045 8.045 0 0 1 1.018 1.587z" class="cls-6" data-name="Path 1990" transform="translate(-649.931 -433.688)"/>
                <path id="Path_1991" d="M680.092 435.661a9.215 9.215 0 0 0-1.216-1.2 9.7 9.7 0 0 1-.725 1.121H680v.631h-.845v.742h1.089v.647h-1.089v1.981c.388-.056.8-.111 1.193-.174l.031.623c-1.049.189-2.138.379-2.833.489a.168.168 0 0 1-.135.126l-.22-.8c.362-.039.8-.1 1.293-.174V437.6h-1.191v-.647h1.191v-.742h-.757v-.111l-.118.126a2.517 2.517 0 0 0-.513-.49 7.184 7.184 0 0 0 1.436-2.162l.852.135c-.015.07-.07.11-.173.11l-.017.039a9.8 9.8 0 0 1 1.326 1.193zm-2.155 2.225a6.867 6.867 0 0 1 .348 1.421l-.529.157a7.085 7.085 0 0 0-.332-1.437zm1.823 1.476c-.024-.016-.449-.174-.449-.174a11.48 11.48 0 0 0 .346-1.348l.688.212c-.024.048-.08.08-.182.08a10.08 10.08 0 0 1-.403 1.23zm.008 0zm4.491-4.285v5.832h-.751v-.509h-2.2v.56h-.718v-5.887h1.167a11.736 11.736 0 0 0 .339-1.508l.979.213c-.024.063-.1.1-.2.1-.087.355-.222.8-.363 1.193zm-2.952.7v1.587h2.2v-1.587zm2.2 3.923v-1.64h-2.2v1.64z" class="cls-6" data-name="Path 1991" transform="translate(-666.884 -433.569)"/>
                <path id="Path_1992" d="M704.755 435.792a56.69 56.69 0 0 0 2.273-.568l.071.592c-.7.222-1.428.442-1.91.584a.14.14 0 0 1-.1.126zm3.181 4.286a.179.179 0 0 1-.135.054.24.24 0 0 1-.07-.007 12.64 12.64 0 0 1-2.384.867 5.233 5.233 0 0 0-.513-.521 9.061 9.061 0 0 0 2.321-.781zm-2.471-6.337a10.151 10.151 0 0 1 1.682.6l-.332.568a11.6 11.6 0 0 0-1.681-.655zm1.99 2.7a1.654 1.654 0 0 0-.324-.481c1.3-.222 1.761-.6 1.941-1.263h-.734a4.636 4.636 0 0 1-.686.671 2.014 2.014 0 0 0-.561-.363 3.442 3.442 0 0 0 1.193-1.413l.788.118c-.016.056-.063.1-.157.1a4.913 4.913 0 0 1-.191.347h2.636l.135-.007.418.048a.739.739 0 0 1-.032.109 4.748 4.748 0 0 1-.758 1.129l-.591-.189a3.606 3.606 0 0 0 .4-.545h-1.105c.174.584.623 1.1 2.257 1.309a2.319 2.319 0 0 0-.379.616 7.627 7.627 0 0 1-.616-.135v3.189h-5.255v-3.241zm2.888.93v-.457h-3.781v.457zm0 .908v-.457h-3.781v.457zm0 .923v-.465h-3.781v.465zm.6-2.761a2.445 2.445 0 0 1-1.461-1.042 2.61 2.61 0 0 1-1.759 1.042zm.2 4.561a15.71 15.71 0 0 0-2.162-.916l.616-.37a23.3 23.3 0 0 1 2.406.931z" class="cls-6" data-name="Path 1992" transform="translate(-684.149 -433.583)"/>
                <path id="Path_1993" d="M739.039 435.975h-2.652a7.172 7.172 0 0 0 2.96 3.1 3.255 3.255 0 0 0-.568.663 7.859 7.859 0 0 1-2.849-3.093v2.147h1.444v.757h-1.444v1.428h-.789v-1.428h-1.476v-.757h1.476v-2.147a8.14 8.14 0 0 1-2.834 3.117 4.09 4.09 0 0 0-.536-.624 7.393 7.393 0 0 0 2.919-3.164h-2.636v-.758h3.086v-1.626l.978.063c-.008.063-.063.111-.189.135v1.428h3.109z" class="cls-6" data-name="Path 1993" transform="translate(-701.011 -433.583)"/>
            </g>
            <g id="Group_1332" data-name="Group 1332" transform="translate(464.954 397.508)">
                <path id="Path_1994" d="M511.093 438.234a3.357 3.357 0 0 1 3.451-3.471 2.977 2.977 0 0 1 2.545 1.328l-.693.393a2.256 2.256 0 0 0-1.852-.976 2.731 2.731 0 0 0 0 5.454 2.282 2.282 0 0 0 1.852-.976l.7.382a3.02 3.02 0 0 1-2.556 1.338 3.357 3.357 0 0 1-3.447-3.472z" class="cls-6" data-name="Path 1994" transform="translate(-511.093 -434.763)"/>
                <path id="Path_1995" d="M537.55 441.769l-.594-1.5h-3.341l-.593 1.5h-.956l2.707-6.711h1.036l2.7 6.711zm-2.264-5.856l-1.418 3.622h2.848z" class="cls-6" data-name="Path 1995" transform="translate(-524.184 -434.947)"/>
                <path id="Path_1996" d="M555.534 441.769v-6.711h2.7a2.024 2.024 0 1 1 0 4.045h-1.862v2.666zm3.934-4.689a1.247 1.247 0 0 0-1.338-1.278h-1.761v2.555h1.761a1.247 1.247 0 0 0 1.338-1.277z" class="cls-6" data-name="Path 1996" transform="translate(-538.831 -434.947)"/>
                <path id="Path_1997" d="M575.251 441.769v-6.711h.835v6.711z" class="cls-6" data-name="Path 1997" transform="translate(-551.137 -434.947)"/>
                <path id="Path_1998" d="M586.551 441.769V435.8h-2.123v-.744h5.091v.744h-2.133v5.967z" class="cls-6" data-name="Path 1998" transform="translate(-556.864 -434.947)"/>
                <path id="Path_1999" d="M606.765 441.769l-.593-1.5h-3.34l-.594 1.5h-.956l2.707-6.711h1.036l2.7 6.711zm-2.264-5.856l-1.418 3.622h2.847z" class="cls-6" data-name="Path 1999" transform="translate(-567.384 -434.947)"/>
                <path id="Path_2000" d="M624.452 441.769v-6.711h.836v5.967h3.119v.744z" class="cls-6" data-name="Path 2000" transform="translate(-581.845 -434.947)"/>
            </g>
        </g>
    </g>
</svg>
