<svg xmlns="http://www.w3.org/2000/svg" id="Group_565" width="180" height="45" data-name="Group 565" viewBox="0 0 180 45">
    <defs>
        <style>
            .cls-1{fill:#fff}
        </style>
    </defs>
    <rect id="Rectangle_118" width="180" height="45" class="cls-1" data-name="Rectangle 118" rx="20"/>
    <g id="Group_300" data-name="Group 300" transform="translate(21.901 14.463)">
        <path id="Path_580" d="M498.235 672.379a2.546 2.546 0 0 1-.941 2.075 3.872 3.872 0 0 1-2.533.771h-7.309v8.516h2.967v-5.886h3.715l4.149 5.886h3.5l-4.559-6.392a6.282 6.282 0 0 0 1.628-.688 5 5 0 0 0 1.267-1.085 4.876 4.876 0 0 0 .832-1.472 6.011 6.011 0 0 0-.133-4.125 4.572 4.572 0 0 0-1.242-1.689 5.69 5.69 0 0 0-1.978-1.062 8.588 8.588 0 0 0-2.618-.373h-7.526v2.7h7.285a4.125 4.125 0 0 1 2.581.712 2.508 2.508 0 0 1 .915 2.112z" data-name="Path 580" transform="translate(-401.573 -666.734)"/>
        <path id="Path_581" d="M432.628 666.855h-12.52v2.653h12.52z" data-name="Path 581" transform="translate(-353.138 -666.734)"/>
        <path id="Path_582" d="M420.108 701.259h12.52v-2.653h-9.866v-4.536h9.866v-2.653h-12.52z" data-name="Path 582" transform="translate(-353.138 -684.252)"/>
        <path id="Path_583" d="M356.231 681.112h-4.922v-4.632h4.7a4.577 4.577 0 0 1 2.617.6 1.948 1.948 0 0 1 .856 1.689 1.979 1.979 0 0 1-.869 1.749 4.2 4.2 0 0 1-2.388.591zm-.266-14.257h-7.575v2.63h7.189a3.65 3.65 0 0 1 2.207.567 1.883 1.883 0 0 1 .76 1.6 1.941 1.941 0 0 1-.869 1.749 4.182 4.182 0 0 1-2.316.567h-6.971v9.77h7.816a10.156 10.156 0 0 0 2.558-.3 5.888 5.888 0 0 0 1.978-.893 4.09 4.09 0 0 0 1.267-1.459 4.324 4.324 0 0 0 .446-2 4.482 4.482 0 0 0-.241-1.532 3.357 3.357 0 0 0-.688-1.146 4.4 4.4 0 0 0-1.061-.832 8.564 8.564 0 0 0-1.363-.615 6.517 6.517 0 0 0 .9-.579 3.749 3.749 0 0 0 .772-.783 3.92 3.92 0 0 0 .53-1.05 4.269 4.269 0 0 0 .205-1.375 3.782 3.782 0 0 0-1.495-3.16 6.458 6.458 0 0 0-4.048-1.159z" data-name="Path 583" transform="translate(-301.595 -666.734)"/>
        <path id="Path_584" d="M278.021 671.631v12.11h2.967v-16.886h-3.16l-5.139 7.985-5.138-7.985h-3.16v16.886h2.919v-12.062l5.283 7.913h.1z" data-name="Path 584" transform="translate(-241.216 -666.734)"/>
        <path id="Path_585" d="M196.38 683.441h3.136l-7.431-17.007h-2.75l-7.429 17.007h3.04c3.139-7.368 2.27-5.415 5.717-13.46 3.278 7.585 2.837 6.592 5.717 13.46z" data-name="Path 585" transform="translate(-181.906 -666.434)"/>
        <path id="Path_586" d="M595.323 683.441h2.051l-7.7-17.007h-1.785l-7.7 17.007h1.954c4.63-10.322 1.325-3 6.61-14.788 3.983 8.943 3.261 7.342 6.561 14.788zm8.7-16.886v16.886h1.9v-16.886z" data-name="Path 586" transform="translate(-468.477 -666.434)"/>
    </g>
</svg>
